solid OpenSCAD_Model
  facet normal 1 -0 0
    outer loop
      vertex 20.4 121.7 13.5
      vertex 20.4 122.7 12.1
      vertex 20.4 122.7 14.5
    endloop
  endfacet
  facet normal 1 0 0
    outer loop
      vertex 20.4 122.7 12.1
      vertex 20.4 121.7 13.5
      vertex 20.4 121.7 13.1
    endloop
  endfacet
  facet normal 1 0 0
    outer loop
      vertex 20.4 122.7 12.1
      vertex 20.4 124.3 14.5
      vertex 20.4 122.7 14.5
    endloop
  endfacet
  facet normal 1 0 0
    outer loop
      vertex 20.4 124.3 14.5
      vertex 20.4 122.7 12.1
      vertex 20.4 124.3 4.5
    endloop
  endfacet
  facet normal 1 0 0
    outer loop
      vertex 20.4 124.3 4.5
      vertex 20.4 122.7 12.1
      vertex 20.4 122.7 4.5
    endloop
  endfacet
  facet normal -0 0 1
    outer loop
      vertex 12.4 124.3 14.5
      vertex 20.4 122.7 14.5
      vertex 20.4 124.3 14.5
    endloop
  endfacet
  facet normal 0 0 1
    outer loop
      vertex 20.4 122.7 14.5
      vertex 12.4 124.3 14.5
      vertex 12.4 122.7 14.5
    endloop
  endfacet
  facet normal -1 0 0
    outer loop
      vertex 12.4 122.7 12.1
      vertex 12.4 124.3 4.5
      vertex 12.4 122.7 4.5
    endloop
  endfacet
  facet normal -1 0 0
    outer loop
      vertex 12.4 124.3 4.5
      vertex 12.4 122.7 12.1
      vertex 12.4 124.3 14.5
    endloop
  endfacet
  facet normal -1 0 0
    outer loop
      vertex 12.4 122.7 12.1
      vertex 12.4 122.7 14.5
      vertex 12.4 124.3 14.5
    endloop
  endfacet
  facet normal -1 0 0
    outer loop
      vertex 12.4 121.7 13.1
      vertex 12.4 122.7 14.5
      vertex 12.4 122.7 12.1
    endloop
  endfacet
  facet normal -1 0 0
    outer loop
      vertex 12.4 122.7 14.5
      vertex 12.4 121.7 13.1
      vertex 12.4 121.7 13.5
    endloop
  endfacet
  facet normal 0 1 -0
    outer loop
      vertex 114.3 124.3 2.5
      vertex 106.2 124.3 4.5
      vertex 114.3 124.3 4.5
    endloop
  endfacet
  facet normal 0 1 0
    outer loop
      vertex 106.2 124.3 4.5
      vertex 114.3 124.3 2.5
      vertex 98.2 124.3 4.5
    endloop
  endfacet
  facet normal 0 1 0
    outer loop
      vertex 98.2 124.3 4.5
      vertex 114.3 124.3 2.5
      vertex 20.4 124.3 4.5
    endloop
  endfacet
  facet normal 0 1 0
    outer loop
      vertex 4.3 124.3 2.5
      vertex 20.4 124.3 4.5
      vertex 114.3 124.3 2.5
    endloop
  endfacet
  facet normal 0 1 0
    outer loop
      vertex 20.4 124.3 4.5
      vertex 4.3 124.3 2.5
      vertex 12.4 124.3 4.5
    endloop
  endfacet
  facet normal 0 1 0
    outer loop
      vertex 12.4 124.3 4.5
      vertex 4.3 124.3 2.5
      vertex 4.3 124.3 4.5
    endloop
  endfacet
  facet normal 0 1 -0
    outer loop
      vertex 106.2 124.3 4.5
      vertex 98.2 124.3 14.5
      vertex 106.2 124.3 14.5
    endloop
  endfacet
  facet normal 0 1 0
    outer loop
      vertex 98.2 124.3 14.5
      vertex 106.2 124.3 4.5
      vertex 98.2 124.3 4.5
    endloop
  endfacet
  facet normal 0 1 -0
    outer loop
      vertex 20.4 124.3 4.5
      vertex 12.4 124.3 14.5
      vertex 20.4 124.3 14.5
    endloop
  endfacet
  facet normal 0 1 0
    outer loop
      vertex 12.4 124.3 14.5
      vertex 20.4 124.3 4.5
      vertex 12.4 124.3 4.5
    endloop
  endfacet
  facet normal 0 -1 0
    outer loop
      vertex 2.7 122.7 2.5
      vertex 12.4 122.7 4.5
      vertex 2.7 122.7 4.5
    endloop
  endfacet
  facet normal 0 -1 -0
    outer loop
      vertex 12.4 122.7 4.5
      vertex 2.7 122.7 2.5
      vertex 20.4 122.7 4.5
    endloop
  endfacet
  facet normal 0 -1 -0
    outer loop
      vertex 20.4 122.7 4.5
      vertex 2.7 122.7 2.5
      vertex 98.2 122.7 4.5
    endloop
  endfacet
  facet normal 0 -1 0
    outer loop
      vertex 115.9 122.7 2.5
      vertex 98.2 122.7 4.5
      vertex 2.7 122.7 2.5
    endloop
  endfacet
  facet normal 0 -1 0
    outer loop
      vertex 98.2 122.7 4.5
      vertex 115.9 122.7 2.5
      vertex 106.2 122.7 4.5
    endloop
  endfacet
  facet normal 0 -1 0
    outer loop
      vertex 106.2 122.7 4.5
      vertex 115.9 122.7 2.5
      vertex 115.9 122.7 4.5
    endloop
  endfacet
  facet normal 0 -1 0
    outer loop
      vertex 12.4 122.7 4.5
      vertex 20.4 122.7 12.1
      vertex 12.4 122.7 12.1
    endloop
  endfacet
  facet normal 0 -1 -0
    outer loop
      vertex 20.4 122.7 12.1
      vertex 12.4 122.7 4.5
      vertex 20.4 122.7 4.5
    endloop
  endfacet
  facet normal 0 -1 0
    outer loop
      vertex 98.2 122.7 4.5
      vertex 106.2 122.7 12.1
      vertex 98.2 122.7 12.1
    endloop
  endfacet
  facet normal 0 -1 -0
    outer loop
      vertex 106.2 122.7 12.1
      vertex 98.2 122.7 4.5
      vertex 106.2 122.7 4.5
    endloop
  endfacet
  facet normal 0 -0.707107 0.707107
    outer loop
      vertex 12.4 121.7 13.5
      vertex 20.4 122.7 14.5
      vertex 12.4 122.7 14.5
    endloop
  endfacet
  facet normal 0 -0.707107 0.707107
    outer loop
      vertex 20.4 122.7 14.5
      vertex 12.4 121.7 13.5
      vertex 20.4 121.7 13.5
    endloop
  endfacet
  facet normal 0 -1 0
    outer loop
      vertex 12.4 121.7 13.1
      vertex 20.4 121.7 13.5
      vertex 12.4 121.7 13.5
    endloop
  endfacet
  facet normal 0 -1 -0
    outer loop
      vertex 20.4 121.7 13.5
      vertex 12.4 121.7 13.1
      vertex 20.4 121.7 13.1
    endloop
  endfacet
  facet normal 0 -0.707107 -0.707107
    outer loop
      vertex 12.4 122.7 12.1
      vertex 20.4 121.7 13.1
      vertex 12.4 121.7 13.1
    endloop
  endfacet
  facet normal 0 -0.707107 -0.707107
    outer loop
      vertex 20.4 121.7 13.1
      vertex 12.4 122.7 12.1
      vertex 20.4 122.7 12.1
    endloop
  endfacet
  facet normal 1 0 0
    outer loop
      vertex 20.4 227.3 14.5
      vertex 20.4 228.3 13.1
      vertex 20.4 228.3 13.5
    endloop
  endfacet
  facet normal 1 0 0
    outer loop
      vertex 20.4 227.3 14.5
      vertex 20.4 227.3 12.1
      vertex 20.4 228.3 13.1
    endloop
  endfacet
  facet normal 1 -0 0
    outer loop
      vertex 20.4 225.7 14.5
      vertex 20.4 227.3 12.1
      vertex 20.4 227.3 14.5
    endloop
  endfacet
  facet normal 1 0 0
    outer loop
      vertex 20.4 225.7 4.5
      vertex 20.4 227.3 12.1
      vertex 20.4 225.7 14.5
    endloop
  endfacet
  facet normal 1 0 0
    outer loop
      vertex 20.4 227.3 12.1
      vertex 20.4 225.7 4.5
      vertex 20.4 227.3 4.5
    endloop
  endfacet
  facet normal 0 0 0
    outer loop
      vertex 20.4 227.3 12.1
      vertex 20.4 227.3 4.5
      vertex 20.4 227.3 2.5
    endloop
  endfacet
  facet normal -0 0 1
    outer loop
      vertex 12.4 227.3 14.5
      vertex 20.4 225.7 14.5
      vertex 20.4 227.3 14.5
    endloop
  endfacet
  facet normal 0 0 1
    outer loop
      vertex 20.4 225.7 14.5
      vertex 12.4 227.3 14.5
      vertex 12.4 225.7 14.5
    endloop
  endfacet
  facet normal -0 0 1
    outer loop
      vertex 4.3 225.7 2.5
      vertex 114.3 124.3 2.5
      vertex 114.3 225.7 2.5
    endloop
  endfacet
  facet normal 0 0 1
    outer loop
      vertex 114.3 124.3 2.5
      vertex 4.3 225.7 2.5
      vertex 4.3 124.3 2.5
    endloop
  endfacet
  facet normal 0 0 1
    outer loop
      vertex 57.25 230 2.5
      vertex 20.4 227.3 2.5
      vertex 57.25 227.6 2.5
    endloop
  endfacet
  facet normal -0 0 1
    outer loop
      vertex 0 230 2.5
      vertex 20.4 227.3 2.5
      vertex 57.25 230 2.5
    endloop
  endfacet
  facet normal 0 0 1
    outer loop
      vertex 20.4 227.3 2.5
      vertex 0 230 2.5
      vertex 12.4 227.3 2.5
    endloop
  endfacet
  facet normal 0 0 1
    outer loop
      vertex 2.7 227.3 2.5
      vertex 2.4 184.1 2.5
      vertex 2.7 122.7 2.5
    endloop
  endfacet
  facet normal 0 0 1
    outer loop
      vertex 12.4 227.3 2.5
      vertex 0 230 2.5
      vertex 2.7 227.3 2.5
    endloop
  endfacet
  facet normal 0 0 1
    outer loop
      vertex 0 184.1 2.5
      vertex 2.7 227.3 2.5
      vertex 0 230 2.5
    endloop
  endfacet
  facet normal 0 0 1
    outer loop
      vertex 2.7 227.3 2.5
      vertex 0 184.1 2.5
      vertex 2.4 184.1 2.5
    endloop
  endfacet
  facet normal 0 0 1
    outer loop
      vertex 115.9 122.7 2.5
      vertex 57.25 122.4 2.5
      vertex 61.35 122.4 2.5
    endloop
  endfacet
  facet normal -0 0 1
    outer loop
      vertex 2.7 122.7 2.5
      vertex 57.25 122.4 2.5
      vertex 115.9 122.7 2.5
    endloop
  endfacet
  facet normal 0 0 1
    outer loop
      vertex 2.7 122.7 2.5
      vertex 57.25 120 2.5
      vertex 57.25 122.4 2.5
    endloop
  endfacet
  facet normal -0 0 1
    outer loop
      vertex 2.4 165.9 2.5
      vertex 2.7 122.7 2.5
      vertex 2.4 184.1 2.5
    endloop
  endfacet
  facet normal -0 0 1
    outer loop
      vertex 0 165.9 2.5
      vertex 2.7 122.7 2.5
      vertex 2.4 165.9 2.5
    endloop
  endfacet
  facet normal 0 0 1
    outer loop
      vertex 2.7 122.7 2.5
      vertex 0 120 2.5
      vertex 57.25 120 2.5
    endloop
  endfacet
  facet normal 0 0 1
    outer loop
      vertex 0 120 2.5
      vertex 2.7 122.7 2.5
      vertex 0 165.9 2.5
    endloop
  endfacet
  facet normal -0 0 1
    outer loop
      vertex 115.9 227.3 2.5
      vertex 118.6 184.1 2.5
      vertex 118.6 230 2.5
    endloop
  endfacet
  facet normal 0 0 1
    outer loop
      vertex 116.2 184.1 2.5
      vertex 115.9 227.3 2.5
      vertex 116.2 165.9 2.5
    endloop
  endfacet
  facet normal 0 0 1
    outer loop
      vertex 118.6 184.1 2.5
      vertex 115.9 227.3 2.5
      vertex 116.2 184.1 2.5
    endloop
  endfacet
  facet normal 0 0 1
    outer loop
      vertex 118.6 230 2.5
      vertex 106.2 227.3 2.5
      vertex 115.9 227.3 2.5
    endloop
  endfacet
  facet normal 0 0 1
    outer loop
      vertex 118.6 230 2.5
      vertex 98.2 227.3 2.5
      vertex 106.2 227.3 2.5
    endloop
  endfacet
  facet normal -0 0 1
    outer loop
      vertex 61.35 230 2.5
      vertex 98.2 227.3 2.5
      vertex 118.6 230 2.5
    endloop
  endfacet
  facet normal -0 0 1
    outer loop
      vertex 61.35 227.6 2.5
      vertex 98.2 227.3 2.5
      vertex 61.35 230 2.5
    endloop
  endfacet
  facet normal -0 0 1
    outer loop
      vertex 57.25 227.6 2.5
      vertex 98.2 227.3 2.5
      vertex 61.35 227.6 2.5
    endloop
  endfacet
  facet normal 0 0 1
    outer loop
      vertex 98.2 227.3 2.5
      vertex 57.25 227.6 2.5
      vertex 20.4 227.3 2.5
    endloop
  endfacet
  facet normal 0 0 1
    outer loop
      vertex 115.9 122.7 2.5
      vertex 118.6 165.9 2.5
      vertex 116.2 165.9 2.5
    endloop
  endfacet
  facet normal 0 0 1
    outer loop
      vertex 115.9 122.7 2.5
      vertex 116.2 165.9 2.5
      vertex 115.9 227.3 2.5
    endloop
  endfacet
  facet normal 0 0 1
    outer loop
      vertex 118.6 165.9 2.5
      vertex 115.9 122.7 2.5
      vertex 118.6 120 2.5
    endloop
  endfacet
  facet normal 0 0 1
    outer loop
      vertex 61.35 120 2.5
      vertex 115.9 122.7 2.5
      vertex 61.35 122.4 2.5
    endloop
  endfacet
  facet normal 0 0 1
    outer loop
      vertex 115.9 122.7 2.5
      vertex 61.35 120 2.5
      vertex 118.6 120 2.5
    endloop
  endfacet
  facet normal -1 0 0
    outer loop
      vertex 12.4 225.7 4.5
      vertex 12.4 227.3 12.1
      vertex 12.4 227.3 4.5
    endloop
  endfacet
  facet normal -1 0 0
    outer loop
      vertex 12.4 225.7 14.5
      vertex 12.4 227.3 12.1
      vertex 12.4 225.7 4.5
    endloop
  endfacet
  facet normal -1 0 0
    outer loop
      vertex 12.4 227.3 12.1
      vertex 12.4 225.7 14.5
      vertex 12.4 227.3 14.5
    endloop
  endfacet
  facet normal -1 0 0
    outer loop
      vertex 12.4 227.3 12.1
      vertex 12.4 228.3 13.5
      vertex 12.4 228.3 13.1
    endloop
  endfacet
  facet normal -1 -0 0
    outer loop
      vertex 12.4 228.3 13.5
      vertex 12.4 227.3 12.1
      vertex 12.4 227.3 14.5
    endloop
  endfacet
  facet normal -0 0 0
    outer loop
      vertex 12.4 227.3 4.5
      vertex 12.4 227.3 12.1
      vertex 12.4 227.3 2.5
    endloop
  endfacet
  facet normal 0 -1 0
    outer loop
      vertex 12.4 225.7 4.5
      vertex 20.4 225.7 14.5
      vertex 12.4 225.7 14.5
    endloop
  endfacet
  facet normal 0 -1 -0
    outer loop
      vertex 20.4 225.7 14.5
      vertex 12.4 225.7 4.5
      vertex 20.4 225.7 4.5
    endloop
  endfacet
  facet normal 0 1 -0
    outer loop
      vertex 20.4 227.3 2.5
      vertex 12.4 227.3 12.1
      vertex 20.4 227.3 12.1
    endloop
  endfacet
  facet normal 0 1 0
    outer loop
      vertex 12.4 227.3 12.1
      vertex 20.4 227.3 2.5
      vertex 12.4 227.3 2.5
    endloop
  endfacet
  facet normal 0 0.707107 0.707107
    outer loop
      vertex 20.4 228.3 13.5
      vertex 12.4 227.3 14.5
      vertex 20.4 227.3 14.5
    endloop
  endfacet
  facet normal 0 0.707107 0.707107
    outer loop
      vertex 12.4 227.3 14.5
      vertex 20.4 228.3 13.5
      vertex 12.4 228.3 13.5
    endloop
  endfacet
  facet normal 0 1 -0
    outer loop
      vertex 20.4 228.3 13.1
      vertex 12.4 228.3 13.5
      vertex 20.4 228.3 13.5
    endloop
  endfacet
  facet normal 0 1 0
    outer loop
      vertex 12.4 228.3 13.5
      vertex 20.4 228.3 13.1
      vertex 12.4 228.3 13.1
    endloop
  endfacet
  facet normal 0 0.707107 -0.707107
    outer loop
      vertex 20.4 227.3 12.1
      vertex 12.4 228.3 13.1
      vertex 20.4 228.3 13.1
    endloop
  endfacet
  facet normal 0 0.707107 -0.707107
    outer loop
      vertex 12.4 228.3 13.1
      vertex 20.4 227.3 12.1
      vertex 12.4 227.3 12.1
    endloop
  endfacet
  facet normal 1 -0 0
    outer loop
      vertex 106.2 121.7 13.5
      vertex 106.2 122.7 12.1
      vertex 106.2 122.7 14.5
    endloop
  endfacet
  facet normal 1 0 0
    outer loop
      vertex 106.2 122.7 12.1
      vertex 106.2 121.7 13.5
      vertex 106.2 121.7 13.1
    endloop
  endfacet
  facet normal 1 0 0
    outer loop
      vertex 106.2 122.7 12.1
      vertex 106.2 124.3 14.5
      vertex 106.2 122.7 14.5
    endloop
  endfacet
  facet normal 1 0 0
    outer loop
      vertex 106.2 124.3 14.5
      vertex 106.2 122.7 12.1
      vertex 106.2 124.3 4.5
    endloop
  endfacet
  facet normal 1 0 0
    outer loop
      vertex 106.2 124.3 4.5
      vertex 106.2 122.7 12.1
      vertex 106.2 122.7 4.5
    endloop
  endfacet
  facet normal -0 0 1
    outer loop
      vertex 98.2 124.3 14.5
      vertex 106.2 122.7 14.5
      vertex 106.2 124.3 14.5
    endloop
  endfacet
  facet normal 0 0 1
    outer loop
      vertex 106.2 122.7 14.5
      vertex 98.2 124.3 14.5
      vertex 98.2 122.7 14.5
    endloop
  endfacet
  facet normal -1 0 0
    outer loop
      vertex 98.2 122.7 12.1
      vertex 98.2 124.3 4.5
      vertex 98.2 122.7 4.5
    endloop
  endfacet
  facet normal -1 0 0
    outer loop
      vertex 98.2 124.3 4.5
      vertex 98.2 122.7 12.1
      vertex 98.2 124.3 14.5
    endloop
  endfacet
  facet normal -1 0 0
    outer loop
      vertex 98.2 122.7 12.1
      vertex 98.2 122.7 14.5
      vertex 98.2 124.3 14.5
    endloop
  endfacet
  facet normal -1 0 0
    outer loop
      vertex 98.2 121.7 13.1
      vertex 98.2 122.7 14.5
      vertex 98.2 122.7 12.1
    endloop
  endfacet
  facet normal -1 0 0
    outer loop
      vertex 98.2 122.7 14.5
      vertex 98.2 121.7 13.1
      vertex 98.2 121.7 13.5
    endloop
  endfacet
  facet normal 0 -0.707107 0.707107
    outer loop
      vertex 98.2 121.7 13.5
      vertex 106.2 122.7 14.5
      vertex 98.2 122.7 14.5
    endloop
  endfacet
  facet normal 0 -0.707107 0.707107
    outer loop
      vertex 106.2 122.7 14.5
      vertex 98.2 121.7 13.5
      vertex 106.2 121.7 13.5
    endloop
  endfacet
  facet normal 0 -1 0
    outer loop
      vertex 98.2 121.7 13.1
      vertex 106.2 121.7 13.5
      vertex 98.2 121.7 13.5
    endloop
  endfacet
  facet normal 0 -1 -0
    outer loop
      vertex 106.2 121.7 13.5
      vertex 98.2 121.7 13.1
      vertex 106.2 121.7 13.1
    endloop
  endfacet
  facet normal 0 -0.707107 -0.707107
    outer loop
      vertex 98.2 122.7 12.1
      vertex 106.2 121.7 13.1
      vertex 98.2 121.7 13.1
    endloop
  endfacet
  facet normal 0 -0.707107 -0.707107
    outer loop
      vertex 106.2 121.7 13.1
      vertex 98.2 122.7 12.1
      vertex 106.2 122.7 12.1
    endloop
  endfacet
  facet normal 1 0 0
    outer loop
      vertex 106.2 227.3 14.5
      vertex 106.2 228.3 13.1
      vertex 106.2 228.3 13.5
    endloop
  endfacet
  facet normal 1 0 0
    outer loop
      vertex 106.2 227.3 14.5
      vertex 106.2 227.3 12.1
      vertex 106.2 228.3 13.1
    endloop
  endfacet
  facet normal 1 -0 0
    outer loop
      vertex 106.2 225.7 14.5
      vertex 106.2 227.3 12.1
      vertex 106.2 227.3 14.5
    endloop
  endfacet
  facet normal 1 0 0
    outer loop
      vertex 106.2 225.7 4.5
      vertex 106.2 227.3 12.1
      vertex 106.2 225.7 14.5
    endloop
  endfacet
  facet normal 1 0 0
    outer loop
      vertex 106.2 227.3 12.1
      vertex 106.2 225.7 4.5
      vertex 106.2 227.3 4.5
    endloop
  endfacet
  facet normal 0 0 0
    outer loop
      vertex 106.2 227.3 12.1
      vertex 106.2 227.3 4.5
      vertex 106.2 227.3 2.5
    endloop
  endfacet
  facet normal -0 0 1
    outer loop
      vertex 98.2 227.3 14.5
      vertex 106.2 225.7 14.5
      vertex 106.2 227.3 14.5
    endloop
  endfacet
  facet normal 0 0 1
    outer loop
      vertex 106.2 225.7 14.5
      vertex 98.2 227.3 14.5
      vertex 98.2 225.7 14.5
    endloop
  endfacet
  facet normal -1 0 0
    outer loop
      vertex 98.2 225.7 4.5
      vertex 98.2 227.3 12.1
      vertex 98.2 227.3 4.5
    endloop
  endfacet
  facet normal -1 0 0
    outer loop
      vertex 98.2 225.7 14.5
      vertex 98.2 227.3 12.1
      vertex 98.2 225.7 4.5
    endloop
  endfacet
  facet normal -1 0 0
    outer loop
      vertex 98.2 227.3 12.1
      vertex 98.2 225.7 14.5
      vertex 98.2 227.3 14.5
    endloop
  endfacet
  facet normal -1 0 0
    outer loop
      vertex 98.2 227.3 12.1
      vertex 98.2 228.3 13.5
      vertex 98.2 228.3 13.1
    endloop
  endfacet
  facet normal -1 -0 0
    outer loop
      vertex 98.2 228.3 13.5
      vertex 98.2 227.3 12.1
      vertex 98.2 227.3 14.5
    endloop
  endfacet
  facet normal -0 0 0
    outer loop
      vertex 98.2 227.3 4.5
      vertex 98.2 227.3 12.1
      vertex 98.2 227.3 2.5
    endloop
  endfacet
  facet normal 0 -1 0
    outer loop
      vertex 98.2 225.7 4.5
      vertex 106.2 225.7 14.5
      vertex 98.2 225.7 14.5
    endloop
  endfacet
  facet normal 0 -1 -0
    outer loop
      vertex 106.2 225.7 14.5
      vertex 98.2 225.7 4.5
      vertex 106.2 225.7 4.5
    endloop
  endfacet
  facet normal 0 1 -0
    outer loop
      vertex 106.2 227.3 2.5
      vertex 98.2 227.3 12.1
      vertex 106.2 227.3 12.1
    endloop
  endfacet
  facet normal 0 1 0
    outer loop
      vertex 98.2 227.3 12.1
      vertex 106.2 227.3 2.5
      vertex 98.2 227.3 2.5
    endloop
  endfacet
  facet normal 0 0.707107 0.707107
    outer loop
      vertex 106.2 228.3 13.5
      vertex 98.2 227.3 14.5
      vertex 106.2 227.3 14.5
    endloop
  endfacet
  facet normal 0 0.707107 0.707107
    outer loop
      vertex 98.2 227.3 14.5
      vertex 106.2 228.3 13.5
      vertex 98.2 228.3 13.5
    endloop
  endfacet
  facet normal 0 1 -0
    outer loop
      vertex 106.2 228.3 13.1
      vertex 98.2 228.3 13.5
      vertex 106.2 228.3 13.5
    endloop
  endfacet
  facet normal 0 1 0
    outer loop
      vertex 98.2 228.3 13.5
      vertex 106.2 228.3 13.1
      vertex 98.2 228.3 13.1
    endloop
  endfacet
  facet normal 0 0.707107 -0.707107
    outer loop
      vertex 106.2 227.3 12.1
      vertex 98.2 228.3 13.1
      vertex 106.2 228.3 13.1
    endloop
  endfacet
  facet normal 0 0.707107 -0.707107
    outer loop
      vertex 98.2 228.3 13.1
      vertex 106.2 227.3 12.1
      vertex 98.2 227.3 12.1
    endloop
  endfacet
  facet normal 1 0 0
    outer loop
      vertex 118.6 184.1 16.1
      vertex 118.6 165.9 16.1
      vertex 118.6 184.1 2.5
    endloop
  endfacet
  facet normal 1 -0 0
    outer loop
      vertex 118.6 184.1 2.5
      vertex 118.6 230 0
      vertex 118.6 230 2.5
    endloop
  endfacet
  facet normal 1 0 0
    outer loop
      vertex 118.6 165.9 2.5
      vertex 118.6 184.1 2.5
      vertex 118.6 165.9 16.1
    endloop
  endfacet
  facet normal 1 -0 0
    outer loop
      vertex 118.6 165.9 2.5
      vertex 118.6 230 0
      vertex 118.6 184.1 2.5
    endloop
  endfacet
  facet normal 1 0 0
    outer loop
      vertex 118.6 120 0
      vertex 118.6 165.9 2.5
      vertex 118.6 120 2.5
    endloop
  endfacet
  facet normal 1 0 0
    outer loop
      vertex 118.6 165.9 2.5
      vertex 118.6 120 0
      vertex 118.6 230 0
    endloop
  endfacet
  facet normal 0 0 -1
    outer loop
      vertex 0 120 0
      vertex 118.6 230 0
      vertex 118.6 120 0
    endloop
  endfacet
  facet normal -0 0 -1
    outer loop
      vertex 118.6 230 0
      vertex 0 120 0
      vertex 0 230 0
    endloop
  endfacet
  facet normal -1 0 0
    outer loop
      vertex 0 230 0
      vertex 0 184.1 2.5
      vertex 0 230 2.5
    endloop
  endfacet
  facet normal -1 0 0
    outer loop
      vertex 0 184.1 2.5
      vertex 0 165.9 2.5
      vertex 0 184.1 16.1
    endloop
  endfacet
  facet normal -1 0 0
    outer loop
      vertex 0 230 0
      vertex 0 165.9 2.5
      vertex 0 184.1 2.5
    endloop
  endfacet
  facet normal -1 0 0
    outer loop
      vertex 0 120 0
      vertex 0 165.9 2.5
      vertex 0 230 0
    endloop
  endfacet
  facet normal -1 -0 0
    outer loop
      vertex 0 165.9 2.5
      vertex 0 120 0
      vertex 0 120 2.5
    endloop
  endfacet
  facet normal -1 -0 0
    outer loop
      vertex 0 184.1 16.1
      vertex 0 165.9 2.5
      vertex 0 165.9 16.1
    endloop
  endfacet
  facet normal 0 1 -0
    outer loop
      vertex 118.6 230 0
      vertex 61.35 230 2.5
      vertex 118.6 230 2.5
    endloop
  endfacet
  facet normal 0 1 0
    outer loop
      vertex 61.35 230 2.5
      vertex 118.6 230 0
      vertex 57.25 230 2.5
    endloop
  endfacet
  facet normal 0 1 0
    outer loop
      vertex 0 230 0
      vertex 57.25 230 2.5
      vertex 118.6 230 0
    endloop
  endfacet
  facet normal 0 1 0
    outer loop
      vertex 57.25 230 2.5
      vertex 0 230 0
      vertex 0 230 2.5
    endloop
  endfacet
  facet normal 0 1 -0
    outer loop
      vertex 61.35 230 2.5
      vertex 57.25 230 20.6
      vertex 61.35 230 20.6
    endloop
  endfacet
  facet normal 0 1 0
    outer loop
      vertex 57.25 230 20.6
      vertex 61.35 230 2.5
      vertex 57.25 230 2.5
    endloop
  endfacet
  facet normal 0 -1 0
    outer loop
      vertex 0 120 0
      vertex 57.25 120 2.5
      vertex 0 120 2.5
    endloop
  endfacet
  facet normal 0 -1 -0
    outer loop
      vertex 57.25 120 2.5
      vertex 0 120 0
      vertex 61.35 120 2.5
    endloop
  endfacet
  facet normal 0 -1 0
    outer loop
      vertex 118.6 120 0
      vertex 61.35 120 2.5
      vertex 0 120 0
    endloop
  endfacet
  facet normal 0 -1 0
    outer loop
      vertex 61.35 120 2.5
      vertex 118.6 120 0
      vertex 118.6 120 2.5
    endloop
  endfacet
  facet normal 0 -1 0
    outer loop
      vertex 57.25 120 2.5
      vertex 61.35 120 20.6
      vertex 57.25 120 20.6
    endloop
  endfacet
  facet normal 0 -1 -0
    outer loop
      vertex 61.35 120 20.6
      vertex 57.25 120 2.5
      vertex 61.35 120 2.5
    endloop
  endfacet
  facet normal 1 -0 0
    outer loop
      vertex 115.9 122.7 4.5
      vertex 115.9 227.3 2.5
      vertex 115.9 227.3 4.5
    endloop
  endfacet
  facet normal 1 0 0
    outer loop
      vertex 115.9 227.3 2.5
      vertex 115.9 122.7 4.5
      vertex 115.9 122.7 2.5
    endloop
  endfacet
  facet normal 0 0 1
    outer loop
      vertex 12.4 227.3 4.5
      vertex 4.3 225.7 4.5
      vertex 12.4 225.7 4.5
    endloop
  endfacet
  facet normal 0 0 1
    outer loop
      vertex 4.3 225.7 4.5
      vertex 2.7 227.3 4.5
      vertex 4.3 124.3 4.5
    endloop
  endfacet
  facet normal -0 0 1
    outer loop
      vertex 2.7 227.3 4.5
      vertex 4.3 225.7 4.5
      vertex 12.4 227.3 4.5
    endloop
  endfacet
  facet normal -0 0 1
    outer loop
      vertex 20.4 227.3 4.5
      vertex 98.2 225.7 4.5
      vertex 98.2 227.3 4.5
    endloop
  endfacet
  facet normal 0 0 1
    outer loop
      vertex 98.2 225.7 4.5
      vertex 20.4 227.3 4.5
      vertex 20.4 225.7 4.5
    endloop
  endfacet
  facet normal 0 0 1
    outer loop
      vertex 115.9 227.3 4.5
      vertex 114.3 225.7 4.5
      vertex 115.9 122.7 4.5
    endloop
  endfacet
  facet normal -0 0 1
    outer loop
      vertex 106.2 227.3 4.5
      vertex 114.3 225.7 4.5
      vertex 115.9 227.3 4.5
    endloop
  endfacet
  facet normal 0 0 1
    outer loop
      vertex 114.3 225.7 4.5
      vertex 106.2 227.3 4.5
      vertex 106.2 225.7 4.5
    endloop
  endfacet
  facet normal -0 0 1
    outer loop
      vertex 114.3 124.3 4.5
      vertex 115.9 122.7 4.5
      vertex 114.3 225.7 4.5
    endloop
  endfacet
  facet normal 0 0 1
    outer loop
      vertex 106.2 122.7 4.5
      vertex 114.3 124.3 4.5
      vertex 106.2 124.3 4.5
    endloop
  endfacet
  facet normal 0 0 1
    outer loop
      vertex 114.3 124.3 4.5
      vertex 106.2 122.7 4.5
      vertex 115.9 122.7 4.5
    endloop
  endfacet
  facet normal -0 0 1
    outer loop
      vertex 4.3 124.3 4.5
      vertex 12.4 122.7 4.5
      vertex 12.4 124.3 4.5
    endloop
  endfacet
  facet normal 0 0 1
    outer loop
      vertex 4.3 124.3 4.5
      vertex 2.7 122.7 4.5
      vertex 12.4 122.7 4.5
    endloop
  endfacet
  facet normal 0 0 1
    outer loop
      vertex 2.7 122.7 4.5
      vertex 4.3 124.3 4.5
      vertex 2.7 227.3 4.5
    endloop
  endfacet
  facet normal 0 0 -0
    outer loop
      vertex 12.4 225.7 4.5
      vertex 4.3 225.7 4.5
      vertex 114.3 225.7 4.5
    endloop
  endfacet
  facet normal 0 0 0
    outer loop
      vertex 98.2 225.7 4.5
      vertex 20.4 225.7 4.5
      vertex 12.4 225.7 4.5
    endloop
  endfacet
  facet normal 0 0 0
    outer loop
      vertex 114.3 225.7 4.5
      vertex 106.2 225.7 4.5
      vertex 98.2 225.7 4.5
    endloop
  endfacet
  facet normal 0 0 -0
    outer loop
      vertex 98.2 225.7 4.5
      vertex 12.4 225.7 4.5
      vertex 114.3 225.7 4.5
    endloop
  endfacet
  facet normal -0 0 1
    outer loop
      vertex 20.4 124.3 4.5
      vertex 98.2 122.7 4.5
      vertex 98.2 124.3 4.5
    endloop
  endfacet
  facet normal 0 0 1
    outer loop
      vertex 98.2 122.7 4.5
      vertex 20.4 124.3 4.5
      vertex 20.4 122.7 4.5
    endloop
  endfacet
  facet normal -1 0 0
    outer loop
      vertex 2.7 122.7 2.5
      vertex 2.7 227.3 4.5
      vertex 2.7 227.3 2.5
    endloop
  endfacet
  facet normal -1 -0 0
    outer loop
      vertex 2.7 227.3 4.5
      vertex 2.7 122.7 2.5
      vertex 2.7 122.7 4.5
    endloop
  endfacet
  facet normal 0 1 -0
    outer loop
      vertex 12.4 227.3 2.5
      vertex 2.7 227.3 4.5
      vertex 12.4 227.3 4.5
    endloop
  endfacet
  facet normal 0 1 0
    outer loop
      vertex 2.7 227.3 4.5
      vertex 12.4 227.3 2.5
      vertex 2.7 227.3 2.5
    endloop
  endfacet
  facet normal 0 1 -0
    outer loop
      vertex 115.9 227.3 2.5
      vertex 106.2 227.3 4.5
      vertex 115.9 227.3 4.5
    endloop
  endfacet
  facet normal 0 1 0
    outer loop
      vertex 106.2 227.3 4.5
      vertex 115.9 227.3 2.5
      vertex 106.2 227.3 2.5
    endloop
  endfacet
  facet normal 0 1 -0
    outer loop
      vertex 98.2 227.3 2.5
      vertex 20.4 227.3 4.5
      vertex 98.2 227.3 4.5
    endloop
  endfacet
  facet normal 0 1 0
    outer loop
      vertex 20.4 227.3 4.5
      vertex 98.2 227.3 2.5
      vertex 20.4 227.3 2.5
    endloop
  endfacet
  facet normal 0 -1 0
    outer loop
      vertex 4.3 225.7 2.5
      vertex 114.3 225.7 4.5
      vertex 4.3 225.7 4.5
    endloop
  endfacet
  facet normal 0 -1 -0
    outer loop
      vertex 114.3 225.7 4.5
      vertex 4.3 225.7 2.5
      vertex 114.3 225.7 2.5
    endloop
  endfacet
  facet normal 1 -0 0
    outer loop
      vertex 4.3 124.3 4.5
      vertex 4.3 225.7 2.5
      vertex 4.3 225.7 4.5
    endloop
  endfacet
  facet normal 1 0 0
    outer loop
      vertex 4.3 225.7 2.5
      vertex 4.3 124.3 4.5
      vertex 4.3 124.3 2.5
    endloop
  endfacet
  facet normal -1 0 0
    outer loop
      vertex 114.3 124.3 2.5
      vertex 114.3 225.7 4.5
      vertex 114.3 225.7 2.5
    endloop
  endfacet
  facet normal -1 -0 0
    outer loop
      vertex 114.3 225.7 4.5
      vertex 114.3 124.3 2.5
      vertex 114.3 124.3 4.5
    endloop
  endfacet
  facet normal 1 -0 0
    outer loop
      vertex 2.4 165.9 16.1
      vertex 2.4 184.1 2.5
      vertex 2.4 184.1 16.1
    endloop
  endfacet
  facet normal 1 0 0
    outer loop
      vertex 2.4 184.1 2.5
      vertex 2.4 165.9 16.1
      vertex 2.4 165.9 2.5
    endloop
  endfacet
  facet normal -0 0 1
    outer loop
      vertex 0 184.1 16.1
      vertex 2.4 165.9 16.1
      vertex 2.4 184.1 16.1
    endloop
  endfacet
  facet normal 0 0 1
    outer loop
      vertex 2.4 165.9 16.1
      vertex 0 184.1 16.1
      vertex 0 165.9 16.1
    endloop
  endfacet
  facet normal 0 1 -0
    outer loop
      vertex 2.4 184.1 2.5
      vertex 0 184.1 16.1
      vertex 2.4 184.1 16.1
    endloop
  endfacet
  facet normal 0 1 0
    outer loop
      vertex 0 184.1 16.1
      vertex 2.4 184.1 2.5
      vertex 0 184.1 2.5
    endloop
  endfacet
  facet normal 0 -1 0
    outer loop
      vertex 0 165.9 2.5
      vertex 2.4 165.9 16.1
      vertex 0 165.9 16.1
    endloop
  endfacet
  facet normal 0 -1 -0
    outer loop
      vertex 2.4 165.9 16.1
      vertex 0 165.9 2.5
      vertex 2.4 165.9 2.5
    endloop
  endfacet
  facet normal -0 0 1
    outer loop
      vertex 116.2 184.1 16.1
      vertex 118.6 165.9 16.1
      vertex 118.6 184.1 16.1
    endloop
  endfacet
  facet normal 0 0 1
    outer loop
      vertex 118.6 165.9 16.1
      vertex 116.2 184.1 16.1
      vertex 116.2 165.9 16.1
    endloop
  endfacet
  facet normal -1 0 0
    outer loop
      vertex 116.2 165.9 2.5
      vertex 116.2 184.1 16.1
      vertex 116.2 184.1 2.5
    endloop
  endfacet
  facet normal -1 -0 0
    outer loop
      vertex 116.2 184.1 16.1
      vertex 116.2 165.9 2.5
      vertex 116.2 165.9 16.1
    endloop
  endfacet
  facet normal 0 1 -0
    outer loop
      vertex 118.6 184.1 2.5
      vertex 116.2 184.1 16.1
      vertex 118.6 184.1 16.1
    endloop
  endfacet
  facet normal 0 1 0
    outer loop
      vertex 116.2 184.1 16.1
      vertex 118.6 184.1 2.5
      vertex 116.2 184.1 2.5
    endloop
  endfacet
  facet normal 0 -1 0
    outer loop
      vertex 116.2 165.9 2.5
      vertex 118.6 165.9 16.1
      vertex 116.2 165.9 16.1
    endloop
  endfacet
  facet normal 0 -1 -0
    outer loop
      vertex 118.6 165.9 16.1
      vertex 116.2 165.9 2.5
      vertex 118.6 165.9 2.5
    endloop
  endfacet
  facet normal 1 -0 0
    outer loop
      vertex 61.35 120 20.6
      vertex 61.35 122.4 2.5
      vertex 61.35 122.4 20.6
    endloop
  endfacet
  facet normal 1 0 0
    outer loop
      vertex 61.35 122.4 2.5
      vertex 61.35 120 20.6
      vertex 61.35 120 2.5
    endloop
  endfacet
  facet normal -0 0 1
    outer loop
      vertex 57.25 122.4 20.6
      vertex 61.35 120 20.6
      vertex 61.35 122.4 20.6
    endloop
  endfacet
  facet normal 0 0 1
    outer loop
      vertex 61.35 120 20.6
      vertex 57.25 122.4 20.6
      vertex 57.25 120 20.6
    endloop
  endfacet
  facet normal -1 0 0
    outer loop
      vertex 57.25 120 2.5
      vertex 57.25 122.4 20.6
      vertex 57.25 122.4 2.5
    endloop
  endfacet
  facet normal -1 -0 0
    outer loop
      vertex 57.25 122.4 20.6
      vertex 57.25 120 2.5
      vertex 57.25 120 20.6
    endloop
  endfacet
  facet normal 0 1 -0
    outer loop
      vertex 61.35 122.4 2.5
      vertex 57.25 122.4 20.6
      vertex 61.35 122.4 20.6
    endloop
  endfacet
  facet normal 0 1 0
    outer loop
      vertex 57.25 122.4 20.6
      vertex 61.35 122.4 2.5
      vertex 57.25 122.4 2.5
    endloop
  endfacet
  facet normal 1 -0 0
    outer loop
      vertex 61.35 227.6 20.6
      vertex 61.35 230 2.5
      vertex 61.35 230 20.6
    endloop
  endfacet
  facet normal 1 0 0
    outer loop
      vertex 61.35 230 2.5
      vertex 61.35 227.6 20.6
      vertex 61.35 227.6 2.5
    endloop
  endfacet
  facet normal -0 0 1
    outer loop
      vertex 57.25 230 20.6
      vertex 61.35 227.6 20.6
      vertex 61.35 230 20.6
    endloop
  endfacet
  facet normal 0 0 1
    outer loop
      vertex 61.35 227.6 20.6
      vertex 57.25 230 20.6
      vertex 57.25 227.6 20.6
    endloop
  endfacet
  facet normal -1 0 0
    outer loop
      vertex 57.25 227.6 2.5
      vertex 57.25 230 20.6
      vertex 57.25 230 2.5
    endloop
  endfacet
  facet normal -1 -0 0
    outer loop
      vertex 57.25 230 20.6
      vertex 57.25 227.6 2.5
      vertex 57.25 227.6 20.6
    endloop
  endfacet
  facet normal 0 -1 0
    outer loop
      vertex 57.25 227.6 2.5
      vertex 61.35 227.6 20.6
      vertex 57.25 227.6 20.6
    endloop
  endfacet
  facet normal 0 -1 -0
    outer loop
      vertex 61.35 227.6 20.6
      vertex 57.25 227.6 2.5
      vertex 61.35 227.6 2.5
    endloop
  endfacet
endsolid OpenSCAD_Model
