solid OpenSCAD_Model
  facet normal 1 -0 0
    outer loop
      vertex 20.4 56.6 13.5
      vertex 20.4 57.6 12.1
      vertex 20.4 57.6 14.5
    endloop
  endfacet
  facet normal 1 0 0
    outer loop
      vertex 20.4 57.6 12.1
      vertex 20.4 56.6 13.5
      vertex 20.4 56.6 13.1
    endloop
  endfacet
  facet normal 1 0 0
    outer loop
      vertex 20.4 57.6 12.1
      vertex 20.4 59.2 14.5
      vertex 20.4 57.6 14.5
    endloop
  endfacet
  facet normal 1 0 0
    outer loop
      vertex 20.4 59.2 14.5
      vertex 20.4 57.6 12.1
      vertex 20.4 59.2 4.5
    endloop
  endfacet
  facet normal 1 0 0
    outer loop
      vertex 20.4 59.2 4.5
      vertex 20.4 57.6 12.1
      vertex 20.4 57.6 4.5
    endloop
  endfacet
  facet normal -0 0 1
    outer loop
      vertex 12.4 59.2 14.5
      vertex 20.4 57.6 14.5
      vertex 20.4 59.2 14.5
    endloop
  endfacet
  facet normal 0 0 1
    outer loop
      vertex 20.4 57.6 14.5
      vertex 12.4 59.2 14.5
      vertex 12.4 57.6 14.5
    endloop
  endfacet
  facet normal -1 0 0
    outer loop
      vertex 12.4 57.6 12.1
      vertex 12.4 59.2 4.5
      vertex 12.4 57.6 4.5
    endloop
  endfacet
  facet normal -1 0 0
    outer loop
      vertex 12.4 59.2 4.5
      vertex 12.4 57.6 12.1
      vertex 12.4 59.2 14.5
    endloop
  endfacet
  facet normal -1 0 0
    outer loop
      vertex 12.4 57.6 12.1
      vertex 12.4 57.6 14.5
      vertex 12.4 59.2 14.5
    endloop
  endfacet
  facet normal -1 0 0
    outer loop
      vertex 12.4 56.6 13.1
      vertex 12.4 57.6 14.5
      vertex 12.4 57.6 12.1
    endloop
  endfacet
  facet normal -1 0 0
    outer loop
      vertex 12.4 57.6 14.5
      vertex 12.4 56.6 13.1
      vertex 12.4 56.6 13.5
    endloop
  endfacet
  facet normal 0 1 -0
    outer loop
      vertex 126.5 59.2 2.5
      vertex 118.4 59.2 4.5
      vertex 126.5 59.2 4.5
    endloop
  endfacet
  facet normal 0 1 0
    outer loop
      vertex 118.4 59.2 4.5
      vertex 126.5 59.2 2.5
      vertex 110.4 59.2 4.5
    endloop
  endfacet
  facet normal 0 1 0
    outer loop
      vertex 110.4 59.2 4.5
      vertex 126.5 59.2 2.5
      vertex 20.4 59.2 4.5
    endloop
  endfacet
  facet normal 0 1 0
    outer loop
      vertex 4.3 59.2 2.5
      vertex 20.4 59.2 4.5
      vertex 126.5 59.2 2.5
    endloop
  endfacet
  facet normal 0 1 0
    outer loop
      vertex 20.4 59.2 4.5
      vertex 4.3 59.2 2.5
      vertex 12.4 59.2 4.5
    endloop
  endfacet
  facet normal 0 1 0
    outer loop
      vertex 12.4 59.2 4.5
      vertex 4.3 59.2 2.5
      vertex 4.3 59.2 4.5
    endloop
  endfacet
  facet normal 0 1 -0
    outer loop
      vertex 118.4 59.2 4.5
      vertex 110.4 59.2 14.5
      vertex 118.4 59.2 14.5
    endloop
  endfacet
  facet normal 0 1 0
    outer loop
      vertex 110.4 59.2 14.5
      vertex 118.4 59.2 4.5
      vertex 110.4 59.2 4.5
    endloop
  endfacet
  facet normal 0 1 -0
    outer loop
      vertex 20.4 59.2 4.5
      vertex 12.4 59.2 14.5
      vertex 20.4 59.2 14.5
    endloop
  endfacet
  facet normal 0 1 0
    outer loop
      vertex 12.4 59.2 14.5
      vertex 20.4 59.2 4.5
      vertex 12.4 59.2 4.5
    endloop
  endfacet
  facet normal 0 -1 0
    outer loop
      vertex 2.7 57.6 2.5
      vertex 12.4 57.6 4.5
      vertex 2.7 57.6 4.5
    endloop
  endfacet
  facet normal 0 -1 -0
    outer loop
      vertex 12.4 57.6 4.5
      vertex 2.7 57.6 2.5
      vertex 20.4 57.6 4.5
    endloop
  endfacet
  facet normal 0 -1 -0
    outer loop
      vertex 20.4 57.6 4.5
      vertex 2.7 57.6 2.5
      vertex 110.4 57.6 4.5
    endloop
  endfacet
  facet normal 0 -1 0
    outer loop
      vertex 128.1 57.6 2.5
      vertex 110.4 57.6 4.5
      vertex 2.7 57.6 2.5
    endloop
  endfacet
  facet normal 0 -1 0
    outer loop
      vertex 110.4 57.6 4.5
      vertex 128.1 57.6 2.5
      vertex 118.4 57.6 4.5
    endloop
  endfacet
  facet normal 0 -1 0
    outer loop
      vertex 118.4 57.6 4.5
      vertex 128.1 57.6 2.5
      vertex 128.1 57.6 4.5
    endloop
  endfacet
  facet normal 0 -1 0
    outer loop
      vertex 12.4 57.6 4.5
      vertex 20.4 57.6 12.1
      vertex 12.4 57.6 12.1
    endloop
  endfacet
  facet normal 0 -1 -0
    outer loop
      vertex 20.4 57.6 12.1
      vertex 12.4 57.6 4.5
      vertex 20.4 57.6 4.5
    endloop
  endfacet
  facet normal 0 -1 0
    outer loop
      vertex 110.4 57.6 4.5
      vertex 118.4 57.6 12.1
      vertex 110.4 57.6 12.1
    endloop
  endfacet
  facet normal 0 -1 -0
    outer loop
      vertex 118.4 57.6 12.1
      vertex 110.4 57.6 4.5
      vertex 118.4 57.6 4.5
    endloop
  endfacet
  facet normal 0 -0.707107 0.707107
    outer loop
      vertex 12.4 56.6 13.5
      vertex 20.4 57.6 14.5
      vertex 12.4 57.6 14.5
    endloop
  endfacet
  facet normal 0 -0.707107 0.707107
    outer loop
      vertex 20.4 57.6 14.5
      vertex 12.4 56.6 13.5
      vertex 20.4 56.6 13.5
    endloop
  endfacet
  facet normal 0 -1 0
    outer loop
      vertex 12.4 56.6 13.1
      vertex 20.4 56.6 13.5
      vertex 12.4 56.6 13.5
    endloop
  endfacet
  facet normal 0 -1 -0
    outer loop
      vertex 20.4 56.6 13.5
      vertex 12.4 56.6 13.1
      vertex 20.4 56.6 13.1
    endloop
  endfacet
  facet normal 0 -0.707107 -0.707107
    outer loop
      vertex 12.4 57.6 12.1
      vertex 20.4 56.6 13.1
      vertex 12.4 56.6 13.1
    endloop
  endfacet
  facet normal 0 -0.707107 -0.707107
    outer loop
      vertex 20.4 56.6 13.1
      vertex 12.4 57.6 12.1
      vertex 20.4 57.6 12.1
    endloop
  endfacet
  facet normal 1 0 0
    outer loop
      vertex 20.4 97.1 14.5
      vertex 20.4 98.1 13.1
      vertex 20.4 98.1 13.5
    endloop
  endfacet
  facet normal 1 0 0
    outer loop
      vertex 20.4 97.1 12.1
      vertex 20.4 98.1 13.1
      vertex 20.4 97.1 14.5
    endloop
  endfacet
  facet normal 1 -0 0
    outer loop
      vertex 20.4 95.5 14.5
      vertex 20.4 97.1 12.1
      vertex 20.4 97.1 14.5
    endloop
  endfacet
  facet normal 1 0 0
    outer loop
      vertex 20.4 95.5 4.5
      vertex 20.4 97.1 12.1
      vertex 20.4 95.5 14.5
    endloop
  endfacet
  facet normal 1 0 0
    outer loop
      vertex 20.4 97.1 12.1
      vertex 20.4 95.5 4.5
      vertex 20.4 97.1 4.5
    endloop
  endfacet
  facet normal 0 0 0
    outer loop
      vertex 20.4 97.1 12.1
      vertex 20.4 97.1 4.5
      vertex 20.4 97.1 2.5
    endloop
  endfacet
  facet normal -0 0 1
    outer loop
      vertex 12.4 97.1 14.5
      vertex 20.4 95.5 14.5
      vertex 20.4 97.1 14.5
    endloop
  endfacet
  facet normal 0 0 1
    outer loop
      vertex 20.4 95.5 14.5
      vertex 12.4 97.1 14.5
      vertex 12.4 95.5 14.5
    endloop
  endfacet
  facet normal -0 0 1
    outer loop
      vertex 128.1 97.1 2.5
      vertex 130.8 86.45 2.5
      vertex 130.8 99.8 2.5
    endloop
  endfacet
  facet normal 0 0 1
    outer loop
      vertex 128.4 86.45 2.5
      vertex 128.1 97.1 2.5
      vertex 128.4 68.25 2.5
    endloop
  endfacet
  facet normal 0 0 1
    outer loop
      vertex 130.8 86.45 2.5
      vertex 128.1 97.1 2.5
      vertex 128.4 86.45 2.5
    endloop
  endfacet
  facet normal 0 0 1
    outer loop
      vertex 130.8 99.8 2.5
      vertex 118.4 97.1 2.5
      vertex 128.1 97.1 2.5
    endloop
  endfacet
  facet normal 0 0 1
    outer loop
      vertex 130.8 99.8 2.5
      vertex 110.4 97.1 2.5
      vertex 118.4 97.1 2.5
    endloop
  endfacet
  facet normal 0 0 1
    outer loop
      vertex 130.8 99.8 2.5
      vertex 20.4 97.1 2.5
      vertex 110.4 97.1 2.5
    endloop
  endfacet
  facet normal -0 0 1
    outer loop
      vertex 0 99.8 2.5
      vertex 20.4 97.1 2.5
      vertex 130.8 99.8 2.5
    endloop
  endfacet
  facet normal 0 0 1
    outer loop
      vertex 20.4 97.1 2.5
      vertex 0 99.8 2.5
      vertex 12.4 97.1 2.5
    endloop
  endfacet
  facet normal 0 0 1
    outer loop
      vertex 2.7 97.1 2.5
      vertex 2.4 86.45 2.5
      vertex 2.7 57.6 2.5
    endloop
  endfacet
  facet normal 0 0 1
    outer loop
      vertex 12.4 97.1 2.5
      vertex 0 99.8 2.5
      vertex 2.7 97.1 2.5
    endloop
  endfacet
  facet normal 0 0 1
    outer loop
      vertex 0 86.45 2.5
      vertex 2.7 97.1 2.5
      vertex 0 99.8 2.5
    endloop
  endfacet
  facet normal 0 0 1
    outer loop
      vertex 2.7 97.1 2.5
      vertex 0 86.45 2.5
      vertex 2.4 86.45 2.5
    endloop
  endfacet
  facet normal 0 0 1
    outer loop
      vertex 128.1 57.6 2.5
      vertex 130.8 68.25 2.5
      vertex 128.4 68.25 2.5
    endloop
  endfacet
  facet normal 0 0 1
    outer loop
      vertex 128.1 57.6 2.5
      vertex 128.4 68.25 2.5
      vertex 128.1 97.1 2.5
    endloop
  endfacet
  facet normal 0 0 1
    outer loop
      vertex 130.8 68.25 2.5
      vertex 128.1 57.6 2.5
      vertex 130.8 54.9 2.5
    endloop
  endfacet
  facet normal -0 0 1
    outer loop
      vertex 2.7 57.6 2.5
      vertex 130.8 54.9 2.5
      vertex 128.1 57.6 2.5
    endloop
  endfacet
  facet normal -0 0 1
    outer loop
      vertex 2.4 68.25 2.5
      vertex 2.7 57.6 2.5
      vertex 2.4 86.45 2.5
    endloop
  endfacet
  facet normal -0 0 1
    outer loop
      vertex 0 68.25 2.5
      vertex 2.7 57.6 2.5
      vertex 2.4 68.25 2.5
    endloop
  endfacet
  facet normal 0 0 1
    outer loop
      vertex 2.7 57.6 2.5
      vertex 0 54.9 2.5
      vertex 130.8 54.9 2.5
    endloop
  endfacet
  facet normal 0 0 1
    outer loop
      vertex 0 54.9 2.5
      vertex 2.7 57.6 2.5
      vertex 0 68.25 2.5
    endloop
  endfacet
  facet normal -0 0 1
    outer loop
      vertex 4.3 95.5 2.5
      vertex 126.5 59.2 2.5
      vertex 126.5 95.5 2.5
    endloop
  endfacet
  facet normal 0 0 1
    outer loop
      vertex 126.5 59.2 2.5
      vertex 4.3 95.5 2.5
      vertex 4.3 59.2 2.5
    endloop
  endfacet
  facet normal -1 0 0
    outer loop
      vertex 12.4 97.1 4.5
      vertex 12.4 95.5 4.5
      vertex 12.4 97.1 12.1
    endloop
  endfacet
  facet normal -1 -0 0
    outer loop
      vertex 12.4 98.1 13.1
      vertex 12.4 97.1 12.1
      vertex 12.4 98.1 13.5
    endloop
  endfacet
  facet normal -1 -0 0
    outer loop
      vertex 12.4 98.1 13.5
      vertex 12.4 97.1 12.1
      vertex 12.4 97.1 14.5
    endloop
  endfacet
  facet normal -1 0 0
    outer loop
      vertex 12.4 95.5 14.5
      vertex 12.4 97.1 12.1
      vertex 12.4 95.5 4.5
    endloop
  endfacet
  facet normal -1 0 0
    outer loop
      vertex 12.4 97.1 12.1
      vertex 12.4 95.5 14.5
      vertex 12.4 97.1 14.5
    endloop
  endfacet
  facet normal 0 0 0
    outer loop
      vertex 12.4 97.1 2.5
      vertex 12.4 97.1 4.5
      vertex 12.4 97.1 12.1
    endloop
  endfacet
  facet normal 0 -1 0
    outer loop
      vertex 12.4 95.5 4.5
      vertex 20.4 95.5 14.5
      vertex 12.4 95.5 14.5
    endloop
  endfacet
  facet normal 0 -1 -0
    outer loop
      vertex 20.4 95.5 14.5
      vertex 12.4 95.5 4.5
      vertex 20.4 95.5 4.5
    endloop
  endfacet
  facet normal 0 1 -0
    outer loop
      vertex 20.4 97.1 2.5
      vertex 12.4 97.1 12.1
      vertex 20.4 97.1 12.1
    endloop
  endfacet
  facet normal 0 1 0
    outer loop
      vertex 12.4 97.1 12.1
      vertex 20.4 97.1 2.5
      vertex 12.4 97.1 2.5
    endloop
  endfacet
  facet normal 0 0.707107 0.707107
    outer loop
      vertex 20.4 98.1 13.5
      vertex 12.4 97.1 14.5
      vertex 20.4 97.1 14.5
    endloop
  endfacet
  facet normal 0 0.707107 0.707107
    outer loop
      vertex 12.4 97.1 14.5
      vertex 20.4 98.1 13.5
      vertex 12.4 98.1 13.5
    endloop
  endfacet
  facet normal 0 1 -0
    outer loop
      vertex 20.4 98.1 13.1
      vertex 12.4 98.1 13.5
      vertex 20.4 98.1 13.5
    endloop
  endfacet
  facet normal 0 1 0
    outer loop
      vertex 12.4 98.1 13.5
      vertex 20.4 98.1 13.1
      vertex 12.4 98.1 13.1
    endloop
  endfacet
  facet normal 0 0.707107 -0.707107
    outer loop
      vertex 20.4 97.1 12.1
      vertex 12.4 98.1 13.1
      vertex 20.4 98.1 13.1
    endloop
  endfacet
  facet normal 0 0.707107 -0.707107
    outer loop
      vertex 12.4 98.1 13.1
      vertex 20.4 97.1 12.1
      vertex 12.4 97.1 12.1
    endloop
  endfacet
  facet normal 1 -0 0
    outer loop
      vertex 118.4 56.6 13.5
      vertex 118.4 57.6 12.1
      vertex 118.4 57.6 14.5
    endloop
  endfacet
  facet normal 1 0 0
    outer loop
      vertex 118.4 57.6 12.1
      vertex 118.4 56.6 13.5
      vertex 118.4 56.6 13.1
    endloop
  endfacet
  facet normal 1 0 0
    outer loop
      vertex 118.4 57.6 12.1
      vertex 118.4 59.2 14.5
      vertex 118.4 57.6 14.5
    endloop
  endfacet
  facet normal 1 0 0
    outer loop
      vertex 118.4 59.2 14.5
      vertex 118.4 57.6 12.1
      vertex 118.4 59.2 4.5
    endloop
  endfacet
  facet normal 1 0 0
    outer loop
      vertex 118.4 59.2 4.5
      vertex 118.4 57.6 12.1
      vertex 118.4 57.6 4.5
    endloop
  endfacet
  facet normal -0 0 1
    outer loop
      vertex 110.4 59.2 14.5
      vertex 118.4 57.6 14.5
      vertex 118.4 59.2 14.5
    endloop
  endfacet
  facet normal 0 0 1
    outer loop
      vertex 118.4 57.6 14.5
      vertex 110.4 59.2 14.5
      vertex 110.4 57.6 14.5
    endloop
  endfacet
  facet normal -1 0 0
    outer loop
      vertex 110.4 57.6 12.1
      vertex 110.4 59.2 4.5
      vertex 110.4 57.6 4.5
    endloop
  endfacet
  facet normal -1 0 0
    outer loop
      vertex 110.4 59.2 4.5
      vertex 110.4 57.6 12.1
      vertex 110.4 59.2 14.5
    endloop
  endfacet
  facet normal -1 0 0
    outer loop
      vertex 110.4 57.6 12.1
      vertex 110.4 57.6 14.5
      vertex 110.4 59.2 14.5
    endloop
  endfacet
  facet normal -1 0 0
    outer loop
      vertex 110.4 56.6 13.1
      vertex 110.4 57.6 14.5
      vertex 110.4 57.6 12.1
    endloop
  endfacet
  facet normal -1 0 0
    outer loop
      vertex 110.4 57.6 14.5
      vertex 110.4 56.6 13.1
      vertex 110.4 56.6 13.5
    endloop
  endfacet
  facet normal 0 -0.707107 0.707107
    outer loop
      vertex 110.4 56.6 13.5
      vertex 118.4 57.6 14.5
      vertex 110.4 57.6 14.5
    endloop
  endfacet
  facet normal 0 -0.707107 0.707107
    outer loop
      vertex 118.4 57.6 14.5
      vertex 110.4 56.6 13.5
      vertex 118.4 56.6 13.5
    endloop
  endfacet
  facet normal 0 -1 0
    outer loop
      vertex 110.4 56.6 13.1
      vertex 118.4 56.6 13.5
      vertex 110.4 56.6 13.5
    endloop
  endfacet
  facet normal 0 -1 -0
    outer loop
      vertex 118.4 56.6 13.5
      vertex 110.4 56.6 13.1
      vertex 118.4 56.6 13.1
    endloop
  endfacet
  facet normal 0 -0.707107 -0.707107
    outer loop
      vertex 110.4 57.6 12.1
      vertex 118.4 56.6 13.1
      vertex 110.4 56.6 13.1
    endloop
  endfacet
  facet normal 0 -0.707107 -0.707107
    outer loop
      vertex 118.4 56.6 13.1
      vertex 110.4 57.6 12.1
      vertex 118.4 57.6 12.1
    endloop
  endfacet
  facet normal 1 0 0
    outer loop
      vertex 118.4 97.1 14.5
      vertex 118.4 98.1 13.1
      vertex 118.4 98.1 13.5
    endloop
  endfacet
  facet normal 1 0 0
    outer loop
      vertex 118.4 97.1 12.1
      vertex 118.4 98.1 13.1
      vertex 118.4 97.1 14.5
    endloop
  endfacet
  facet normal 1 -0 0
    outer loop
      vertex 118.4 95.5 14.5
      vertex 118.4 97.1 12.1
      vertex 118.4 97.1 14.5
    endloop
  endfacet
  facet normal 1 0 0
    outer loop
      vertex 118.4 95.5 4.5
      vertex 118.4 97.1 12.1
      vertex 118.4 95.5 14.5
    endloop
  endfacet
  facet normal 1 0 0
    outer loop
      vertex 118.4 97.1 12.1
      vertex 118.4 95.5 4.5
      vertex 118.4 97.1 4.5
    endloop
  endfacet
  facet normal 0 0 0
    outer loop
      vertex 118.4 97.1 12.1
      vertex 118.4 97.1 4.5
      vertex 118.4 97.1 2.5
    endloop
  endfacet
  facet normal -0 0 1
    outer loop
      vertex 110.4 97.1 14.5
      vertex 118.4 95.5 14.5
      vertex 118.4 97.1 14.5
    endloop
  endfacet
  facet normal 0 0 1
    outer loop
      vertex 118.4 95.5 14.5
      vertex 110.4 97.1 14.5
      vertex 110.4 95.5 14.5
    endloop
  endfacet
  facet normal -1 0 0
    outer loop
      vertex 110.4 97.1 4.5
      vertex 110.4 95.5 4.5
      vertex 110.4 97.1 12.1
    endloop
  endfacet
  facet normal -1 -0 0
    outer loop
      vertex 110.4 98.1 13.1
      vertex 110.4 97.1 12.1
      vertex 110.4 98.1 13.5
    endloop
  endfacet
  facet normal -1 -0 0
    outer loop
      vertex 110.4 98.1 13.5
      vertex 110.4 97.1 12.1
      vertex 110.4 97.1 14.5
    endloop
  endfacet
  facet normal -1 0 0
    outer loop
      vertex 110.4 95.5 14.5
      vertex 110.4 97.1 12.1
      vertex 110.4 95.5 4.5
    endloop
  endfacet
  facet normal -1 0 0
    outer loop
      vertex 110.4 97.1 12.1
      vertex 110.4 95.5 14.5
      vertex 110.4 97.1 14.5
    endloop
  endfacet
  facet normal -0 0 0
    outer loop
      vertex 110.4 97.1 4.5
      vertex 110.4 97.1 12.1
      vertex 110.4 97.1 2.5
    endloop
  endfacet
  facet normal 0 -1 0
    outer loop
      vertex 110.4 95.5 4.5
      vertex 118.4 95.5 14.5
      vertex 110.4 95.5 14.5
    endloop
  endfacet
  facet normal 0 -1 -0
    outer loop
      vertex 118.4 95.5 14.5
      vertex 110.4 95.5 4.5
      vertex 118.4 95.5 4.5
    endloop
  endfacet
  facet normal 0 1 -0
    outer loop
      vertex 118.4 97.1 2.5
      vertex 110.4 97.1 12.1
      vertex 118.4 97.1 12.1
    endloop
  endfacet
  facet normal 0 1 0
    outer loop
      vertex 110.4 97.1 12.1
      vertex 118.4 97.1 2.5
      vertex 110.4 97.1 2.5
    endloop
  endfacet
  facet normal 0 0.707107 0.707107
    outer loop
      vertex 118.4 98.1 13.5
      vertex 110.4 97.1 14.5
      vertex 118.4 97.1 14.5
    endloop
  endfacet
  facet normal 0 0.707107 0.707107
    outer loop
      vertex 110.4 97.1 14.5
      vertex 118.4 98.1 13.5
      vertex 110.4 98.1 13.5
    endloop
  endfacet
  facet normal 0 1 -0
    outer loop
      vertex 118.4 98.1 13.1
      vertex 110.4 98.1 13.5
      vertex 118.4 98.1 13.5
    endloop
  endfacet
  facet normal 0 1 0
    outer loop
      vertex 110.4 98.1 13.5
      vertex 118.4 98.1 13.1
      vertex 110.4 98.1 13.1
    endloop
  endfacet
  facet normal 0 0.707107 -0.707107
    outer loop
      vertex 118.4 97.1 12.1
      vertex 110.4 98.1 13.1
      vertex 118.4 98.1 13.1
    endloop
  endfacet
  facet normal 0 0.707107 -0.707107
    outer loop
      vertex 110.4 98.1 13.1
      vertex 118.4 97.1 12.1
      vertex 110.4 97.1 12.1
    endloop
  endfacet
  facet normal 1 0 0
    outer loop
      vertex 130.8 86.45 7.1
      vertex 130.8 68.25 7.1
      vertex 130.8 86.45 2.5
    endloop
  endfacet
  facet normal 1 -0 0
    outer loop
      vertex 130.8 86.45 2.5
      vertex 130.8 99.8 0
      vertex 130.8 99.8 2.5
    endloop
  endfacet
  facet normal 1 0 0
    outer loop
      vertex 130.8 68.25 2.5
      vertex 130.8 86.45 2.5
      vertex 130.8 68.25 7.1
    endloop
  endfacet
  facet normal 1 -0 0
    outer loop
      vertex 130.8 68.25 2.5
      vertex 130.8 99.8 0
      vertex 130.8 86.45 2.5
    endloop
  endfacet
  facet normal 1 0 0
    outer loop
      vertex 130.8 54.9 0
      vertex 130.8 68.25 2.5
      vertex 130.8 54.9 2.5
    endloop
  endfacet
  facet normal 1 0 0
    outer loop
      vertex 130.8 68.25 2.5
      vertex 130.8 54.9 0
      vertex 130.8 99.8 0
    endloop
  endfacet
  facet normal 0 0 -1
    outer loop
      vertex 0 54.9 0
      vertex 130.8 99.8 0
      vertex 130.8 54.9 0
    endloop
  endfacet
  facet normal -0 0 -1
    outer loop
      vertex 130.8 99.8 0
      vertex 0 54.9 0
      vertex 0 99.8 0
    endloop
  endfacet
  facet normal -1 0 0
    outer loop
      vertex 0 99.8 0
      vertex 0 86.45 2.5
      vertex 0 99.8 2.5
    endloop
  endfacet
  facet normal -1 0 0
    outer loop
      vertex 0 86.45 2.5
      vertex 0 68.25 2.5
      vertex 0 86.45 7.1
    endloop
  endfacet
  facet normal -1 0 0
    outer loop
      vertex 0 99.8 0
      vertex 0 68.25 2.5
      vertex 0 86.45 2.5
    endloop
  endfacet
  facet normal -1 0 0
    outer loop
      vertex 0 54.9 0
      vertex 0 68.25 2.5
      vertex 0 99.8 0
    endloop
  endfacet
  facet normal -1 -0 0
    outer loop
      vertex 0 68.25 2.5
      vertex 0 54.9 0
      vertex 0 54.9 2.5
    endloop
  endfacet
  facet normal -1 -0 0
    outer loop
      vertex 0 86.45 7.1
      vertex 0 68.25 2.5
      vertex 0 68.25 7.1
    endloop
  endfacet
  facet normal 0 1 -0
    outer loop
      vertex 130.8 99.8 0
      vertex 0 99.8 2.5
      vertex 130.8 99.8 2.5
    endloop
  endfacet
  facet normal 0 1 0
    outer loop
      vertex 0 99.8 2.5
      vertex 130.8 99.8 0
      vertex 0 99.8 0
    endloop
  endfacet
  facet normal 0 -1 0
    outer loop
      vertex 0 54.9 0
      vertex 130.8 54.9 2.5
      vertex 0 54.9 2.5
    endloop
  endfacet
  facet normal 0 -1 -0
    outer loop
      vertex 130.8 54.9 2.5
      vertex 0 54.9 0
      vertex 130.8 54.9 0
    endloop
  endfacet
  facet normal 1 -0 0
    outer loop
      vertex 128.1 57.6 4.5
      vertex 128.1 97.1 2.5
      vertex 128.1 97.1 4.5
    endloop
  endfacet
  facet normal 1 0 0
    outer loop
      vertex 128.1 97.1 2.5
      vertex 128.1 57.6 4.5
      vertex 128.1 57.6 2.5
    endloop
  endfacet
  facet normal 0 0 1
    outer loop
      vertex 12.4 97.1 4.5
      vertex 4.3 95.5 4.5
      vertex 12.4 95.5 4.5
    endloop
  endfacet
  facet normal 0 0 1
    outer loop
      vertex 4.3 95.5 4.5
      vertex 2.7 97.1 4.5
      vertex 4.3 59.2 4.5
    endloop
  endfacet
  facet normal -0 0 1
    outer loop
      vertex 2.7 97.1 4.5
      vertex 4.3 95.5 4.5
      vertex 12.4 97.1 4.5
    endloop
  endfacet
  facet normal -0 0 1
    outer loop
      vertex 20.4 97.1 4.5
      vertex 110.4 95.5 4.5
      vertex 110.4 97.1 4.5
    endloop
  endfacet
  facet normal 0 0 1
    outer loop
      vertex 110.4 95.5 4.5
      vertex 20.4 97.1 4.5
      vertex 20.4 95.5 4.5
    endloop
  endfacet
  facet normal 0 0 1
    outer loop
      vertex 128.1 97.1 4.5
      vertex 126.5 95.5 4.5
      vertex 128.1 57.6 4.5
    endloop
  endfacet
  facet normal -0 0 1
    outer loop
      vertex 118.4 97.1 4.5
      vertex 126.5 95.5 4.5
      vertex 128.1 97.1 4.5
    endloop
  endfacet
  facet normal 0 0 1
    outer loop
      vertex 126.5 95.5 4.5
      vertex 118.4 97.1 4.5
      vertex 118.4 95.5 4.5
    endloop
  endfacet
  facet normal -0 0 1
    outer loop
      vertex 126.5 59.2 4.5
      vertex 128.1 57.6 4.5
      vertex 126.5 95.5 4.5
    endloop
  endfacet
  facet normal 0 0 1
    outer loop
      vertex 118.4 57.6 4.5
      vertex 126.5 59.2 4.5
      vertex 118.4 59.2 4.5
    endloop
  endfacet
  facet normal 0 0 1
    outer loop
      vertex 126.5 59.2 4.5
      vertex 118.4 57.6 4.5
      vertex 128.1 57.6 4.5
    endloop
  endfacet
  facet normal -0 0 1
    outer loop
      vertex 4.3 59.2 4.5
      vertex 12.4 57.6 4.5
      vertex 12.4 59.2 4.5
    endloop
  endfacet
  facet normal 0 0 1
    outer loop
      vertex 4.3 59.2 4.5
      vertex 2.7 57.6 4.5
      vertex 12.4 57.6 4.5
    endloop
  endfacet
  facet normal 0 0 1
    outer loop
      vertex 2.7 57.6 4.5
      vertex 4.3 59.2 4.5
      vertex 2.7 97.1 4.5
    endloop
  endfacet
  facet normal 0 0 0
    outer loop
      vertex 118.4 95.5 4.5
      vertex 110.4 95.5 4.5
      vertex 20.4 95.5 4.5
    endloop
  endfacet
  facet normal 0 0 0
    outer loop
      vertex 118.4 95.5 4.5
      vertex 20.4 95.5 4.5
      vertex 12.4 95.5 4.5
    endloop
  endfacet
  facet normal 0 0 -0
    outer loop
      vertex 12.4 95.5 4.5
      vertex 4.3 95.5 4.5
      vertex 126.5 95.5 4.5
    endloop
  endfacet
  facet normal 0 0 0
    outer loop
      vertex 126.5 95.5 4.5
      vertex 118.4 95.5 4.5
      vertex 12.4 95.5 4.5
    endloop
  endfacet
  facet normal -0 0 1
    outer loop
      vertex 20.4 59.2 4.5
      vertex 110.4 57.6 4.5
      vertex 110.4 59.2 4.5
    endloop
  endfacet
  facet normal 0 0 1
    outer loop
      vertex 110.4 57.6 4.5
      vertex 20.4 59.2 4.5
      vertex 20.4 57.6 4.5
    endloop
  endfacet
  facet normal -1 0 0
    outer loop
      vertex 2.7 57.6 2.5
      vertex 2.7 97.1 4.5
      vertex 2.7 97.1 2.5
    endloop
  endfacet
  facet normal -1 -0 0
    outer loop
      vertex 2.7 97.1 4.5
      vertex 2.7 57.6 2.5
      vertex 2.7 57.6 4.5
    endloop
  endfacet
  facet normal 0 1 -0
    outer loop
      vertex 12.4 97.1 2.5
      vertex 2.7 97.1 4.5
      vertex 12.4 97.1 4.5
    endloop
  endfacet
  facet normal 0 1 0
    outer loop
      vertex 2.7 97.1 4.5
      vertex 12.4 97.1 2.5
      vertex 2.7 97.1 2.5
    endloop
  endfacet
  facet normal 0 1 -0
    outer loop
      vertex 128.1 97.1 2.5
      vertex 118.4 97.1 4.5
      vertex 128.1 97.1 4.5
    endloop
  endfacet
  facet normal 0 1 0
    outer loop
      vertex 118.4 97.1 4.5
      vertex 128.1 97.1 2.5
      vertex 118.4 97.1 2.5
    endloop
  endfacet
  facet normal 0 1 -0
    outer loop
      vertex 110.4 97.1 2.5
      vertex 20.4 97.1 4.5
      vertex 110.4 97.1 4.5
    endloop
  endfacet
  facet normal 0 1 0
    outer loop
      vertex 20.4 97.1 4.5
      vertex 110.4 97.1 2.5
      vertex 20.4 97.1 2.5
    endloop
  endfacet
  facet normal 0 -1 0
    outer loop
      vertex 4.3 95.5 2.5
      vertex 126.5 95.5 4.5
      vertex 4.3 95.5 4.5
    endloop
  endfacet
  facet normal 0 -1 -0
    outer loop
      vertex 126.5 95.5 4.5
      vertex 4.3 95.5 2.5
      vertex 126.5 95.5 2.5
    endloop
  endfacet
  facet normal 1 -0 0
    outer loop
      vertex 4.3 59.2 4.5
      vertex 4.3 95.5 2.5
      vertex 4.3 95.5 4.5
    endloop
  endfacet
  facet normal 1 0 0
    outer loop
      vertex 4.3 95.5 2.5
      vertex 4.3 59.2 4.5
      vertex 4.3 59.2 2.5
    endloop
  endfacet
  facet normal -1 0 0
    outer loop
      vertex 126.5 59.2 2.5
      vertex 126.5 95.5 4.5
      vertex 126.5 95.5 2.5
    endloop
  endfacet
  facet normal -1 -0 0
    outer loop
      vertex 126.5 95.5 4.5
      vertex 126.5 59.2 2.5
      vertex 126.5 59.2 4.5
    endloop
  endfacet
  facet normal 1 -0 0
    outer loop
      vertex 2.4 68.25 7.1
      vertex 2.4 86.45 2.5
      vertex 2.4 86.45 7.1
    endloop
  endfacet
  facet normal 1 0 0
    outer loop
      vertex 2.4 86.45 2.5
      vertex 2.4 68.25 7.1
      vertex 2.4 68.25 2.5
    endloop
  endfacet
  facet normal -0 0 1
    outer loop
      vertex 0 86.45 7.1
      vertex 2.4 68.25 7.1
      vertex 2.4 86.45 7.1
    endloop
  endfacet
  facet normal 0 0 1
    outer loop
      vertex 2.4 68.25 7.1
      vertex 0 86.45 7.1
      vertex 0 68.25 7.1
    endloop
  endfacet
  facet normal 0 1 -0
    outer loop
      vertex 2.4 86.45 2.5
      vertex 0 86.45 7.1
      vertex 2.4 86.45 7.1
    endloop
  endfacet
  facet normal 0 1 0
    outer loop
      vertex 0 86.45 7.1
      vertex 2.4 86.45 2.5
      vertex 0 86.45 2.5
    endloop
  endfacet
  facet normal 0 -1 0
    outer loop
      vertex 0 68.25 2.5
      vertex 2.4 68.25 7.1
      vertex 0 68.25 7.1
    endloop
  endfacet
  facet normal 0 -1 -0
    outer loop
      vertex 2.4 68.25 7.1
      vertex 0 68.25 2.5
      vertex 2.4 68.25 2.5
    endloop
  endfacet
  facet normal -0 0 1
    outer loop
      vertex 128.4 86.45 7.1
      vertex 130.8 68.25 7.1
      vertex 130.8 86.45 7.1
    endloop
  endfacet
  facet normal 0 0 1
    outer loop
      vertex 130.8 68.25 7.1
      vertex 128.4 86.45 7.1
      vertex 128.4 68.25 7.1
    endloop
  endfacet
  facet normal -1 0 0
    outer loop
      vertex 128.4 68.25 2.5
      vertex 128.4 86.45 7.1
      vertex 128.4 86.45 2.5
    endloop
  endfacet
  facet normal -1 -0 0
    outer loop
      vertex 128.4 86.45 7.1
      vertex 128.4 68.25 2.5
      vertex 128.4 68.25 7.1
    endloop
  endfacet
  facet normal 0 1 -0
    outer loop
      vertex 130.8 86.45 2.5
      vertex 128.4 86.45 7.1
      vertex 130.8 86.45 7.1
    endloop
  endfacet
  facet normal 0 1 0
    outer loop
      vertex 128.4 86.45 7.1
      vertex 130.8 86.45 2.5
      vertex 128.4 86.45 2.5
    endloop
  endfacet
  facet normal 0 -1 0
    outer loop
      vertex 128.4 68.25 2.5
      vertex 130.8 68.25 7.1
      vertex 128.4 68.25 7.1
    endloop
  endfacet
  facet normal 0 -1 -0
    outer loop
      vertex 130.8 68.25 7.1
      vertex 128.4 68.25 2.5
      vertex 130.8 68.25 2.5
    endloop
  endfacet
endsolid OpenSCAD_Model
